<svg width="28" height="28" viewBox="0 0 28 28" fill="none" xmlns="http://www.w3.org/2000/svg">
<path d="M27 1.86667V26.1333C27 26.612 26.612 27 26.1333 27H1.86667C1.38802 27 1 26.612 1 26.1333V1.86667C1 1.38802 1.38802 1 1.86667 1H26.1333C26.612 1 27 1.38802 27 1.86667Z" stroke="#19191B" stroke-width="2" stroke-linecap="round" stroke-linejoin="round"/>
<path d="M1 19.7779L11.1111 15.4446L27 22.6668" stroke="#19191B" stroke-width="2" stroke-linecap="round" stroke-linejoin="round"/>
<path d="M19.7776 11.1113C18.182 11.1113 16.8887 9.81787 16.8887 8.22238C16.8887 6.62689 18.182 5.3335 19.7776 5.3335C21.3731 5.3335 22.6664 6.62689 22.6664 8.22238C22.6664 9.81787 21.3731 11.1113 19.7776 11.1113Z" stroke="#19191B" stroke-width="2" stroke-linecap="round" stroke-linejoin="round"/>
</svg>
