<svg width="19" height="19" viewBox="0 0 19 19" fill="none" xmlns="http://www.w3.org/2000/svg">
<path fill-rule="evenodd" clip-rule="evenodd" d="M1.5 3.05921C1.5 2.54326 1.91826 2.125 2.43421 2.125H15.9079C16.4239 2.125 16.8421 2.54325 16.8421 3.05921V3.99341H1.5V3.05921ZM0 4.74341V3.05921C0 1.71483 1.08983 0.625 2.43421 0.625H15.9079C17.2523 0.625 18.3421 1.71484 18.3421 3.05921V4.74341V10.6382C18.3421 11.0524 18.0063 11.3882 17.5921 11.3882C17.1779 11.3882 16.8421 11.0524 16.8421 10.6382V5.49341H1.5V14.8487C1.5 15.3647 1.91825 15.7829 2.43421 15.7829H10.0132C10.4274 15.7829 10.7632 16.1187 10.7632 16.5329C10.7632 16.9471 10.4274 17.2829 10.0132 17.2829H2.43421C1.08984 17.2829 0 16.1931 0 14.8487V4.74341Z" fill="#19191B" fill-opacity="0.6"/>
<path d="M3.27539 3.06746L3.28381 3.05811" stroke="#19191B" stroke-opacity="0.6" stroke-width="1.5" stroke-linecap="round" stroke-linejoin="round"/>
<path d="M5.80273 3.06746L5.81116 3.05811" stroke="#19191B" stroke-opacity="0.6" stroke-width="1.5" stroke-linecap="round" stroke-linejoin="round"/>
<path d="M8.32812 3.06746L8.33655 3.05811" stroke="#19191B" stroke-opacity="0.6" stroke-width="1.5" stroke-linecap="round" stroke-linejoin="round"/>
<path d="M16.0123 15.7905C16.4681 15.3335 16.7499 14.703 16.7499 14.0065C16.7499 12.6113 15.6189 11.4802 14.2236 11.4802C12.8283 11.4802 11.6973 12.6113 11.6973 14.0065C11.6973 15.4018 12.8283 16.5329 14.2236 16.5329C14.9224 16.5329 15.5549 16.2491 16.0123 15.7905ZM16.0123 15.7905L17.592 17.375" stroke="#19191B" stroke-opacity="0.6" stroke-width="1.5" stroke-linecap="round" stroke-linejoin="round"/>
</svg>
