<svg width="17" height="17" viewBox="0 0 17 17" fill="none" xmlns="http://www.w3.org/2000/svg">
<g clip-path="url(#clip0_548_1908)">
<path fill-rule="evenodd" clip-rule="evenodd" d="M12.727 4.94972C12.9223 4.75446 12.9223 4.43788 12.727 4.24262C12.5317 4.04735 12.2151 4.04735 12.0199 4.24262L8.48438 7.77812L4.94887 4.24262C4.7536 4.04735 4.43702 4.04735 4.24176 4.24262C4.0465 4.43788 4.0465 4.75446 4.24176 4.94972L7.77727 8.48523L4.24171 12.0208C4.04645 12.2161 4.04645 12.5326 4.24171 12.7279C4.43697 12.9232 4.75355 12.9232 4.94882 12.7279L8.48438 9.19234L12.0199 12.7279C12.2152 12.9232 12.5318 12.9232 12.727 12.7279C12.9223 12.5326 12.9223 12.2161 12.727 12.0208L9.19148 8.48523L12.727 4.94972Z" fill="#19191B" fill-opacity="0.6"/>
</g>
<defs>
<clipPath id="clip0_548_1908">
<rect width="12" height="12" fill="white" transform="translate(8.48438) rotate(45)"/>
</clipPath>
</defs>
</svg>
