<svg width="40" height="40" viewBox="0 0 40 40" fill="none" xmlns="http://www.w3.org/2000/svg">
<g clip-path="url(#clip0_415_4035)">
<path fill-rule="evenodd" clip-rule="evenodd" d="M28.4852 12.8995C28.8758 12.509 28.8758 11.8758 28.4852 11.4853C28.0947 11.0948 27.4615 11.0948 27.071 11.4853L20 18.5563L12.929 11.4853C12.5385 11.0948 11.9053 11.0948 11.5148 11.4853C11.1242 11.8758 11.1242 12.509 11.5148 12.8995L18.5858 19.9705L11.5147 27.0416C11.1241 27.4322 11.1241 28.0653 11.5147 28.4559C11.9052 28.8464 12.5384 28.8464 12.9289 28.4559L20 21.3847L27.0711 28.4559C27.4616 28.8464 28.0948 28.8464 28.4853 28.4559C28.8759 28.0653 28.8759 27.4322 28.4853 27.0416L21.4142 19.9705L28.4852 12.8995Z" fill="white"/>
</g>
<defs>
<clipPath id="clip0_415_4035">
<rect width="24" height="24" fill="white" transform="translate(20 3.00006) rotate(45)"/>
</clipPath>
</defs>
</svg>
