<svg width="16" height="17" viewBox="0 0 16 17" fill="none" xmlns="http://www.w3.org/2000/svg">
<circle cx="8" cy="8.5" r="8" fill="white"/>
<path fill-rule="evenodd" clip-rule="evenodd" d="M5.35883 5.14124C5.16357 4.94598 4.84699 4.94598 4.65173 5.14124C4.45646 5.33651 4.45646 5.65309 4.65173 5.84835L7.30337 8.5L4.65173 11.1516C4.45646 11.3469 4.45646 11.6635 4.65173 11.8588C4.84699 12.054 5.16357 12.054 5.35883 11.8588L8.01048 9.20711L10.6621 11.8588C10.8574 12.054 11.174 12.054 11.3692 11.8588C11.5645 11.6635 11.5645 11.3469 11.3692 11.1517L8.71759 8.5L11.3692 5.84835C11.5645 5.65309 11.5645 5.3365 11.3692 5.14124C11.174 4.94598 10.8574 4.94598 10.6621 5.14124L8.01048 7.79289L5.35883 5.14124Z" fill="#19191B" fill-opacity="0.6"/>
</svg>
