<svg width="28" height="28" viewBox="0 0 28 28" fill="none" xmlns="http://www.w3.org/2000/svg">
<circle cx="14" cy="14" r="14" fill="white"/>
<path d="M21.456 12.04L19.944 11.536L20.656 10.112C20.7282 9.96295 20.7523 9.79517 20.7251 9.63182C20.6979 9.46847 20.6206 9.31759 20.504 9.2L18.8 7.496C18.6818 7.37767 18.5295 7.29937 18.3644 7.2721C18.1994 7.24484 18.03 7.26998 17.88 7.344L16.456 8.056L15.952 6.544C15.8988 6.3864 15.7977 6.2493 15.663 6.1518C15.5282 6.0543 15.3663 6.00124 15.2 6H12.8C12.6323 5.99957 12.4687 6.05186 12.3323 6.14948C12.1959 6.24709 12.0937 6.38511 12.04 6.544L11.536 8.056L10.112 7.344C9.96295 7.27183 9.79517 7.24769 9.63182 7.27491C9.46847 7.30214 9.31759 7.37939 9.2 7.496L7.496 9.2C7.37767 9.31821 7.29937 9.47054 7.2721 9.63557C7.24484 9.80059 7.26998 9.97001 7.344 10.12L8.056 11.544L6.544 12.048C6.3864 12.1012 6.2493 12.2023 6.1518 12.337C6.0543 12.4718 6.00124 12.6337 6 12.8V15.2C5.99957 15.3677 6.05186 15.5313 6.14948 15.6677C6.24709 15.8041 6.38511 15.9063 6.544 15.96L8.056 16.464L7.344 17.888C7.27183 18.0371 7.24769 18.2048 7.27491 18.3682C7.30214 18.5315 7.37939 18.6824 7.496 18.8L9.2 20.504C9.31821 20.6223 9.47054 20.7006 9.63557 20.7279C9.80059 20.7552 9.97001 20.73 10.12 20.656L11.544 19.944L12.048 21.456C12.1017 21.6149 12.2039 21.7529 12.3403 21.8505C12.4767 21.9481 12.6403 22.0004 12.808 22H15.208C15.3757 22.0004 15.5393 21.9481 15.6757 21.8505C15.8121 21.7529 15.9143 21.6149 15.968 21.456L16.472 19.944L17.896 20.656C18.0441 20.7264 18.2102 20.7495 18.3719 20.7223C18.5336 20.6951 18.6831 20.6189 18.8 20.504L20.504 18.8C20.6223 18.6818 20.7006 18.5295 20.7279 18.3644C20.7552 18.1994 20.73 18.03 20.656 17.88L19.944 16.456L21.456 15.952C21.6136 15.8988 21.7507 15.7977 21.8482 15.663C21.9457 15.5282 21.9988 15.3663 22 15.2V12.8C22.0004 12.6323 21.9481 12.4687 21.8505 12.3323C21.7529 12.1959 21.6149 12.0937 21.456 12.04ZM20.4 14.624L19.44 14.944C19.2192 15.0156 19.0167 15.1344 18.8464 15.2921C18.6762 15.4498 18.5423 15.6426 18.454 15.8573C18.3657 16.0719 18.3251 16.3032 18.3352 16.535C18.3452 16.7669 18.4055 16.9938 18.512 17.2L18.968 18.112L18.088 18.992L17.2 18.512C16.9948 18.4098 16.7701 18.3528 16.541 18.345C16.312 18.3372 16.0839 18.3787 15.8723 18.4667C15.6606 18.5547 15.4703 18.6871 15.3143 18.8551C15.1583 19.023 15.0402 19.2225 14.968 19.44L14.648 20.4H13.376L13.056 19.44C12.9844 19.2192 12.8656 19.0167 12.7079 18.8464C12.5502 18.6762 12.3574 18.5423 12.1427 18.454C11.9281 18.3657 11.6968 18.3251 11.465 18.3352C11.2331 18.3452 11.0062 18.4055 10.8 18.512L9.888 18.968L9.008 18.088L9.488 17.2C9.59448 16.9938 9.65482 16.7669 9.66484 16.535C9.67486 16.3032 9.63432 16.0719 9.54603 15.8573C9.45775 15.6426 9.32382 15.4498 9.15356 15.2921C8.98329 15.1344 8.78076 15.0156 8.56 14.944L7.6 14.624V13.376L8.56 13.056C8.78076 12.9844 8.98329 12.8656 9.15356 12.7079C9.32382 12.5502 9.45775 12.3574 9.54603 12.1427C9.63432 11.9281 9.67486 11.6968 9.66484 11.465C9.65482 11.2331 9.59448 11.0062 9.488 10.8L9.032 9.912L9.912 9.032L10.8 9.488C11.0062 9.59448 11.2331 9.65482 11.465 9.66484C11.6968 9.67486 11.9281 9.63432 12.1427 9.54603C12.3574 9.45775 12.5502 9.32382 12.7079 9.15356C12.8656 8.98329 12.9844 8.78076 13.056 8.56L13.376 7.6H14.624L14.944 8.56C15.0156 8.78076 15.1344 8.98329 15.2921 9.15356C15.4498 9.32382 15.6426 9.45775 15.8573 9.54603C16.0719 9.63432 16.3032 9.67486 16.535 9.66484C16.7669 9.65482 16.9938 9.59448 17.2 9.488L18.112 9.032L18.992 9.912L18.512 10.8C18.4098 11.0052 18.3528 11.2299 18.345 11.459C18.3372 11.688 18.3787 11.9161 18.4667 12.1277C18.5547 12.3394 18.6871 12.5297 18.8551 12.6857C19.023 12.8417 19.2225 12.9598 19.44 13.032L20.4 13.352V14.624ZM14 10.8C13.3671 10.8 12.7484 10.9877 12.2222 11.3393C11.6959 11.6909 11.2858 12.1907 11.0436 12.7754C10.8014 13.3601 10.738 14.0035 10.8615 14.6243C10.985 15.245 11.2897 15.8152 11.7373 16.2627C12.1848 16.7103 12.755 17.015 13.3757 17.1385C13.9965 17.262 14.6399 17.1986 15.2246 16.9564C15.8093 16.7142 16.3091 16.3041 16.6607 15.7778C17.0123 15.2516 17.2 14.6329 17.2 14C17.2 13.1513 16.8629 12.3374 16.2627 11.7373C15.6626 11.1371 14.8487 10.8 14 10.8ZM14 15.6C13.6835 15.6 13.3742 15.5062 13.1111 15.3304C12.848 15.1545 12.6429 14.9047 12.5218 14.6123C12.4007 14.3199 12.369 13.9982 12.4307 13.6879C12.4925 13.3775 12.6449 13.0924 12.8686 12.8686C13.0924 12.6449 13.3775 12.4925 13.6879 12.4307C13.9982 12.369 14.3199 12.4007 14.6123 12.5218C14.9047 12.6429 15.1545 12.848 15.3304 13.1111C15.5062 13.3742 15.6 13.6835 15.6 14C15.6 14.4243 15.4314 14.8313 15.1314 15.1314C14.8313 15.4314 14.4243 15.6 14 15.6Z" fill="#19191B" fill-opacity="0.7"/>
</svg>
