<svg width="75" height="75" viewBox="0 0 75 75" fill="none" xmlns="http://www.w3.org/2000/svg">
<rect width="75" height="75" fill="white"/>
<path d="M38.03 16C46.55 16 53 22.9855 53 30.9775C53 40.2464 45.44 46 38 46C35.54 46 32.81 45.339 30.62 44.0471C29.855 43.5814 29.21 43.2359 28.385 43.5063L25.355 44.4076C24.59 44.648 23.9 44.0471 24.125 43.2359L25.13 39.8708C25.295 39.4051 25.265 38.9094 25.025 38.5188C23.735 36.1452 23 33.5463 23 31.0225C23 23.1207 29.315 16 38.03 16ZM44.885 29.1147C43.82 29.1147 42.965 29.971 42.965 31.0376C42.965 32.0891 43.82 32.9604 44.885 32.9604C45.95 32.9604 46.805 32.0891 46.805 31.0376C46.805 29.971 45.95 29.1147 44.885 29.1147ZM37.97 29.1147C36.92 29.0996 36.05 29.971 36.05 31.0225C36.05 32.0891 36.905 32.9454 37.97 32.9604C39.035 32.9604 39.89 32.0891 39.89 31.0376C39.89 29.971 39.035 29.1147 37.97 29.1147ZM31.055 29.1147C29.99 29.1147 29.135 29.971 29.135 31.0376C29.135 32.0891 30.005 32.9604 31.055 32.9604C32.12 32.9454 32.975 32.0891 32.975 31.0376C32.975 29.971 32.12 29.1147 31.055 29.1147Z" fill="#19191B" fill-opacity="0.9"/>
<path d="M19.2207 59.7305C19.2266 61.3945 20.0762 63.1055 21.5059 63.8672L20.9668 64.5586C19.9297 63.9902 19.1797 62.918 18.7988 61.6641C18.4297 63 17.6797 64.1602 16.6426 64.7695L16.0918 64.0898C17.498 63.2637 18.3477 61.4531 18.3535 59.7305V59.25H16.3379V58.4883H18.3535V56.918H19.2324V58.4883H21.2246V59.25H19.2207V59.7305ZM21.9395 66.4219V56.7539H22.8184V60.75H24.2363V56.5312H25.127V66.9492H24.2363V61.5352H22.8184V66.4219H21.9395ZM36.0371 61.6875V62.4492H26.5449V61.6875H28.9004V60.2168C28.0684 59.8945 27.5996 59.3672 27.5996 58.6641C27.5996 57.4395 29.0059 56.7363 31.291 56.7305C33.5586 56.7363 34.9648 57.4395 34.9707 58.6641C34.9648 59.3613 34.502 59.8887 33.6816 60.2168V61.6875H36.0371ZM27.6934 65.0859C27.6875 63.8965 29.0293 63.2402 31.291 63.2461C33.5234 63.2402 34.8652 63.8965 34.877 65.0859C34.8652 66.2754 33.5234 66.9258 31.291 66.9258C29.0293 66.9258 27.6875 66.2754 27.6934 65.0859ZM28.5488 58.6641C28.543 59.4258 29.5859 59.8652 31.291 59.8711C32.9785 59.8652 34.0273 59.4258 34.0332 58.6641C34.0273 57.9141 32.9785 57.457 31.291 57.457C29.5859 57.457 28.543 57.9141 28.5488 58.6641ZM28.6309 65.0859C28.6191 65.7949 29.6211 66.2168 31.291 66.2109C32.9434 66.2168 33.9453 65.7949 33.9512 65.0859C33.9453 64.377 32.9434 63.9609 31.291 63.9492C29.6211 63.9609 28.6191 64.377 28.6309 65.0859ZM29.8145 61.6875H32.7676V60.4629C32.3281 60.5449 31.8359 60.5859 31.291 60.5859C30.7461 60.5859 30.2539 60.5449 29.8145 60.4688V61.6875ZM48.834 56.5312V66.9492H47.9551V56.5312H48.834ZM39.7988 64.1719C41.252 63.3047 42.1016 61.4004 42.0957 59.5078V58.5234H40.0918V57.7617H44.8965V58.5234H42.9863V59.5078C42.9863 61.3066 43.8008 63.1055 45.2363 63.9375L44.6738 64.6172C43.6484 64.002 42.9219 62.877 42.5586 61.5527C42.1836 62.9883 41.4277 64.2129 40.3848 64.8633L39.7988 64.1719ZM44.0996 61.043V60.293H45.8574V56.7891H46.7246V66.4102H45.8574V61.043H44.0996ZM53.709 57.293C55.3438 57.2988 56.5039 58.2949 56.5098 59.7422C56.5039 61.1953 55.3438 62.1855 53.709 62.1914C52.0625 62.1855 50.8906 61.1953 50.8965 59.7422C50.8906 58.2949 52.0625 57.2988 53.709 57.293ZM50.3574 63.8906C52.2793 63.8965 54.9336 63.8789 57.2363 63.5391L57.3066 64.2188C54.9219 64.6641 52.3613 64.6758 50.4863 64.6758L50.3574 63.8906ZM51.7988 59.7422C51.793 60.7148 52.5957 61.3828 53.709 61.3828C54.8105 61.3828 55.6133 60.7148 55.6074 59.7422C55.6133 58.7754 54.8105 58.1016 53.709 58.1016C52.5957 58.1016 51.793 58.7754 51.7988 59.7422ZM57.9277 66.9727V56.5312H58.8418V66.9727H57.9277Z" fill="#19191B" fill-opacity="0.9"/>
</svg>
