<svg width="265" height="66" viewBox="0 0 265 66" fill="none" xmlns="http://www.w3.org/2000/svg">
<path d="M86.1191 36.0039C86.1191 37.5283 87.0967 39.0254 89.0449 39.668L88.2793 40.8438C86.8916 40.3789 85.9141 39.4561 85.374 38.3008C84.8271 39.5654 83.8018 40.5703 82.3594 41.0625L81.5527 39.8867C83.542 39.2236 84.5879 37.624 84.5879 36.0039V35.8535H81.9766V34.6367H88.6895V35.8535H86.1191V36.0039ZM83.207 43.0996V41.8828H91.4375V46.2168H89.9199V43.0996H83.207ZM89.9199 41.3086V33.8574H91.4375V36.9473H93.1602V38.2188H91.4375V41.3086H89.9199ZM105.055 39.709V40.9258H100.16V42.1152H103.688V46.0664H95.1152V42.1152H98.6562V40.9258H93.7891V39.709H105.055ZM94.8008 35.4434V34.2266H104.016V35.4434H102.32V37.5625H103.947V38.793H94.8691V37.5625H96.4961V35.4434H94.8008ZM96.6191 44.8359H102.211V43.291H96.6191V44.8359ZM98.0137 37.5625H100.789V35.4434H98.0137V37.5625ZM118.959 33.8574V36.6738H120.682V37.918H118.959V40.8027H117.441V33.8574H118.959ZM109.115 39.8184C111.979 39.0869 113.606 37.624 113.873 35.8398H109.703V34.6094H115.527C115.521 37.8223 113.415 40.0439 109.717 41.0352L109.115 39.8184ZM110.961 46.0527V41.2949H118.959V46.0527H110.961ZM112.479 44.8496H117.455V42.5391H112.479V44.8496ZM125.686 35.8262C125.686 37.3779 126.69 38.8477 128.598 39.4492L127.777 40.6387C126.444 40.1875 125.487 39.2852 124.947 38.1367C124.414 39.4492 123.416 40.4814 121.994 40.9805L121.174 39.791C123.163 39.1006 124.161 37.4531 124.168 35.6895V34.5137H125.686V35.8262ZM122.855 43.8516C122.855 42.3887 124.462 41.5205 127.039 41.5273C129.596 41.5205 131.175 42.3887 131.182 43.8516C131.175 45.3486 129.596 46.2031 127.039 46.2031C124.462 46.2031 122.855 45.3486 122.855 43.8516ZM124.373 43.8516C124.373 44.6172 125.344 45 127.039 45C128.728 45 129.678 44.6172 129.678 43.8516C129.678 43.127 128.728 42.7168 127.039 42.7168C125.344 42.7168 124.373 43.127 124.373 43.8516ZM129.541 41.2539V33.8574H131.059V36.8652H132.781V38.123H131.059V41.2539H129.541ZM143.09 33.8574V38.7793H144.99V40.0371H143.09V46.2168H141.586V33.8574H143.09ZM133.342 36.9746V35.7578H136.268V34.0352H137.785V35.7578H140.629V36.9746H133.342ZM133.916 40.6934C133.902 38.9844 135.229 37.7744 137.033 37.7812C138.811 37.7744 140.13 38.9844 140.137 40.6934C140.13 42.3955 138.811 43.5918 137.033 43.5918C135.229 43.5918 133.902 42.3955 133.916 40.6934ZM135.365 40.6934C135.358 41.6982 136.062 42.3408 137.033 42.334C137.983 42.3408 138.674 41.6982 138.688 40.6934C138.674 39.6885 137.983 39.0254 137.033 39.0254C136.062 39.0254 135.358 39.6885 135.365 40.6934ZM155.859 33.8574V46.2305H154.342V39.6543H152.223V38.4102H154.342V33.8574H155.859ZM145.92 36.168V34.9375H151.512V39.4629H147.465V42.0605C149.304 42.0537 150.78 41.9922 152.441 41.6914L152.564 42.9355C150.726 43.2568 149.071 43.3252 146.945 43.332H145.961V38.2324H150.021V36.168H145.92ZM170.611 33.8574V38.6836H172.443V39.9551H170.611V46.1895H169.094V33.8574H170.611ZM160.863 42.8125C163.871 41.3086 165.498 39.2168 165.799 36.4004H161.533V35.1426H167.344C167.337 38.7725 165.833 41.9648 161.725 43.9883L160.863 42.8125ZM183.354 33.8574V46.2168H181.822V33.8574H183.354ZM173.113 42.8125C176.354 41.2744 177.844 39.1826 178.117 36.373H173.742V35.1699H179.662C179.662 38.8477 178.233 41.9717 173.906 44.0293L173.113 42.8125Z" fill="white"/>
<path fill-rule="evenodd" clip-rule="evenodd" d="M265 0H0V66H19V37.9C19 22.436 31.536 9.9 47 9.9H218C233.464 9.9 246 22.436 246 37.9V66H265V0Z" fill="#5007C6"/>
</svg>
