<svg width="75" height="75" viewBox="0 0 75 75" fill="none" xmlns="http://www.w3.org/2000/svg">
<rect width="75" height="75" fill="white"/>
<rect width="75" height="75" fill="white"/>
<path fill-rule="evenodd" clip-rule="evenodd" d="M38.1992 21.55C38.1992 18.4848 40.684 16 43.7492 16C46.8145 16 49.2992 18.4848 49.2992 21.55C49.2992 24.6152 46.8145 27.1 43.7492 27.1C42.263 27.1 40.9133 26.5158 39.917 25.5646L32.9132 29.5668C33.035 30.024 33.1 30.5044 33.1 31C33.1 31.4955 33.0351 31.9759 32.9132 32.433L39.9171 36.4352C40.9133 35.484 42.263 34.8999 43.7492 34.8999C46.8145 34.8999 49.2992 37.3847 49.2992 40.4499C49.2992 43.5151 46.8145 45.9999 43.7492 45.9999C40.684 45.9999 38.1992 43.5151 38.1992 40.4499C38.1992 39.954 38.2643 39.4732 38.3863 39.0158L31.3829 35.0138C30.3866 35.9655 29.0366 36.5499 27.55 36.5499C24.4848 36.5499 22 34.0652 22 31C22 27.9347 24.4848 25.45 27.55 25.45C29.0365 25.45 30.3866 26.0344 31.3829 26.986L38.3863 22.9841C38.2643 22.5266 38.1992 22.0459 38.1992 21.55ZM43.7492 19C42.3408 19 41.1992 20.1417 41.1992 21.55C41.1992 22.9583 42.3408 24.1 43.7492 24.1C45.1576 24.1 46.2992 22.9583 46.2992 21.55C46.2992 20.1417 45.1576 19 43.7492 19ZM43.7492 37.8999C42.3408 37.8999 41.1992 39.0415 41.1992 40.4499C41.1992 41.8583 42.3408 42.9999 43.7492 42.9999C45.1576 42.9999 46.2992 41.8583 46.2992 40.4499C46.2992 39.0415 45.1576 37.8999 43.7492 37.8999ZM25 31C25 29.5916 26.1417 28.45 27.55 28.45C28.9583 28.45 30.1 29.5916 30.1 31C30.1 32.4083 28.9583 33.5499 27.55 33.5499C26.1417 33.5499 25 32.4083 25 31Z" fill="#19191B" fill-opacity="0.9"/>
<path d="M21.6328 63.1172C23.8652 63.1172 25.2832 63.8203 25.2891 65.0273C25.2832 66.2227 23.8652 66.9258 21.6328 66.9258C19.4004 66.9258 17.9824 66.2227 17.9883 65.0273C17.9824 63.8203 19.4004 63.1172 21.6328 63.1172ZM16.9336 62.1445V61.3945H20.8594V59.3789H21.7617V61.3945H26.4141V62.1445H16.9336ZM18.0586 57.8203V57.0703H25.207V57.9492C25.2012 58.793 25.2012 59.6367 24.9141 60.7148L24.0117 60.6094C24.293 59.5371 24.293 58.7637 24.293 57.9492V57.8203H18.0586ZM18.9023 65.0273C18.8965 65.7539 19.9746 66.1992 21.6328 66.1992C23.2969 66.1992 24.3633 65.7539 24.375 65.0273C24.3633 64.2832 23.2969 63.8262 21.6328 63.8203C19.9746 63.8262 18.8965 64.2832 18.9023 65.0273ZM36.8203 62.4727V63.2344H34.3008V66.9492H33.375V63.2344H30.7031V66.9492H29.7539V63.2344H27.2812V62.4727H36.8203ZM28.3594 59.2266C28.3652 57.8379 29.8359 56.959 32.0273 56.9531C34.2129 56.959 35.6953 57.8379 35.6953 59.2266C35.6953 60.6152 34.2129 61.4824 32.0273 61.4766C29.8359 61.4824 28.3652 60.6152 28.3594 59.2266ZM29.3086 59.2266C29.2969 60.1465 30.4043 60.7383 32.0273 60.7383C33.6504 60.7383 34.752 60.1465 34.7578 59.2266C34.752 58.3008 33.6504 57.7031 32.0273 57.7031C30.4043 57.7031 29.2969 58.3008 29.3086 59.2266ZM45.7266 56.5312V60.832H47.4727V61.5938H45.7266V66.9492H44.8125V56.5312H45.7266ZM37.6055 58.9688V58.207H40.2891V56.6602H41.2031V58.207H43.8047V58.9688H37.6055ZM38.2031 62.2266C38.1973 60.8203 39.2754 59.8359 40.7578 59.8359C42.2285 59.8359 43.3008 60.8203 43.3125 62.2266C43.3008 63.6387 42.2285 64.6172 40.7578 64.6172C39.2754 64.6172 38.1973 63.6387 38.2031 62.2266ZM39.082 62.2266C39.0762 63.1758 39.7852 63.8438 40.7578 63.832C41.7188 63.8438 42.4219 63.1758 42.4336 62.2266C42.4219 61.2832 41.7188 60.6035 40.7578 60.6094C39.7852 60.6035 39.0762 61.2832 39.082 62.2266ZM56.6484 56.5312V66.9492H55.7227V56.5312H56.6484ZM48.1641 64.2422C50.9824 62.9062 52.4238 60.9082 52.6289 58.418H48.6445V57.668H53.5664C53.5547 60.6621 52.1602 63.3164 48.668 64.9922L48.1641 64.2422Z" fill="#19191B" fill-opacity="0.9"/>
</svg>
