<svg width="116" height="21" viewBox="0 0 116 21" fill="none" xmlns="http://www.w3.org/2000/svg">
<path fill-rule="evenodd" clip-rule="evenodd" d="M61.6149 10.0448C62.805 10.2993 63.761 10.8965 64.4829 11.8364C65.2048 12.7566 65.5658 13.814 65.5658 15.0084C65.5658 16.7315 64.9609 18.1021 63.7513 19.1203C62.5612 20.1189 60.893 20.6182 58.7469 20.6182H49.177V0H58.4249C60.5126 0 62.1417 0.479719 63.3123 1.43916C64.5024 2.3986 65.0975 3.7007 65.0975 5.34545C65.0975 6.55944 64.7756 7.56783 64.1317 8.37063C63.5074 9.17342 62.6685 9.73147 61.6149 10.0448ZM54.1814 8.34126H57.4592C58.2786 8.34126 58.9029 8.16503 59.3322 7.81259C59.7809 7.44056 60.0053 6.9021 60.0053 6.1972C60.0053 5.49231 59.7809 4.95385 59.3322 4.58182C58.9029 4.20979 58.2786 4.02378 57.4592 4.02378H54.1814V8.34126ZM57.8689 16.565C58.7078 16.565 59.3517 16.379 59.8004 16.007C60.2687 15.6154 60.5028 15.0573 60.5028 14.3329C60.5028 13.6084 60.2589 13.0406 59.7711 12.6294C59.3029 12.2182 58.6493 12.0126 57.8103 12.0126H54.1814V16.565H57.8689ZM81.3453 0V14.0392C81.3453 16.2126 80.7307 17.8867 79.5015 19.0615C78.2919 20.2364 76.653 20.8238 74.5849 20.8238C72.4192 20.8238 70.6828 20.207 69.3756 18.9734C68.0684 17.7399 67.4148 15.9874 67.4148 13.7161H72.3899C72.3899 14.5776 72.5655 15.2336 72.9167 15.6839C73.2679 16.1147 73.7752 16.3301 74.4385 16.3301C75.0434 16.3301 75.5116 16.1343 75.8433 15.7427C76.175 15.351 76.3408 14.7832 76.3408 14.0392V0H81.3453ZM90.392 8.1944V4.02378H97.9718V0H85.3876V20.6182H97.9718V16.5944H90.392V12.0713H97.0939V8.1944H90.392ZM116 0V4.02378H110.557V20.6182H105.552V4.02378H100.109V0H116ZM10.4259 15.8601H36.0334C38.963 15.8601 41.3378 13.4768 41.3378 10.5367C41.3378 7.59667 38.963 5.21329 36.0334 5.21329H10.4259C7.49637 5.21329 5.1215 7.59667 5.1215 10.5367C5.1215 13.4768 7.49637 15.8601 10.4259 15.8601ZM5.1215 0.073431H0V5.21329V10.5367V15.8601V21H5.1215H10.4259H36.0334H41.3378H46.4594V15.8601V10.5367V5.21329V0.073431H41.3378H36.0334H10.4259H5.1215Z" fill="black"/>
</svg>
