<svg width="17" height="17" viewBox="0 0 17 17" fill="none" xmlns="http://www.w3.org/2000/svg">
<path fill-rule="evenodd" clip-rule="evenodd" d="M9.97215 1.55541C9.97215 0.931534 9.4664 0.425781 8.84252 0.425781C8.21864 0.425781 7.71289 0.931534 7.71289 1.55541V7.20361H2.06518C1.4413 7.20361 0.935547 7.70937 0.935547 8.33324C0.935547 8.95712 1.4413 9.46287 2.06518 9.46287H7.71289V15.111C7.71289 15.7348 8.21864 16.2406 8.84252 16.2406C9.4664 16.2406 9.97215 15.7348 9.97215 15.111V9.46287H15.6207C16.2446 9.46287 16.7504 8.95712 16.7504 8.33324C16.7504 7.70937 16.2446 7.20361 15.6207 7.20361H9.97215V1.55541Z" fill="#19191B" fill-opacity="0.6"/>
</svg>
