<svg width="75" height="75" viewBox="0 0 75 75" fill="none" xmlns="http://www.w3.org/2000/svg">
<rect width="75" height="75" fill="white"/>
<path d="M37.5 46C37.5 46 32.2228 42.326 29.2703 39C25.3292 34.5605 23 31.5882 23 26.6471C23 21.7059 26.1351 18 30.0541 18C36.8231 18 37.4539 23.8354 37.5 25.4268C37.5461 23.8354 38.1768 18 44.9459 18C48.8649 18 52 21.7059 52 26.6471C52 31.5882 49.6574 34.8838 45.7297 39C42.9544 41.9085 37.5 46 37.5 46Z" fill="#19191B" fill-opacity="0.9"/>
<path d="M27.1133 59.6367V60.8672H31.4492V61.6289H21.9102V60.8672H26.2109V59.6367H27.1133ZM22.4258 59.5781C24.2246 59.4316 25.9766 58.6523 26.0645 57.5859H22.7891V56.8594H30.5703V57.5859H27.2715C27.3594 58.6523 29.0938 59.4316 30.9102 59.5781L30.6055 60.2695C28.8711 60.1055 27.2363 59.4258 26.6738 58.3301C26.1113 59.4258 24.4707 60.1055 22.7305 60.2695L22.4258 59.5781ZM22.8125 63.7383V63.0117H26.2109V62.0273H27.125V63.0117H30.5469V63.7383H22.8125ZM23.5273 65.625C23.5215 64.7227 24.6406 64.2598 26.668 64.2539C28.6777 64.2598 29.8203 64.7227 29.8203 65.625C29.8203 66.5391 28.6777 67.0137 26.668 67.0078C24.6406 67.0137 23.5215 66.5391 23.5273 65.625ZM24.4531 65.625C24.4531 66.1055 25.2617 66.375 26.668 66.3633C28.0801 66.375 28.877 66.1055 28.8828 65.625C28.877 65.1445 28.0801 64.9043 26.668 64.8984C25.2617 64.9043 24.4531 65.1445 24.4531 65.625ZM35.082 57.3398C36.6172 57.3457 37.707 58.7578 37.7188 60.9727C37.707 63.1934 36.6172 64.5996 35.082 64.5938C33.5352 64.5996 32.4512 63.1934 32.457 60.9727C32.4512 58.7578 33.5352 57.3457 35.082 57.3398ZM33.3242 60.9727C33.3301 62.666 34.0508 63.7793 35.082 63.7734C36.125 63.7793 36.8281 62.666 36.8281 60.9727C36.8281 59.2793 36.125 58.166 35.082 58.1602C34.0508 58.166 33.3301 59.2793 33.3242 60.9727ZM39.4414 66.9492V56.5312H40.3555V60.6914H42.1016V61.4883H40.3555V66.9492H39.4414ZM52.2031 64.8398V65.6133H42.6641V64.8398H45.0312V62.0332C44.1406 61.5703 43.6016 60.8203 43.6016 59.8711C43.6016 58.2598 45.1836 57.1992 47.4102 57.1875C49.6367 57.1992 51.2188 58.2598 51.2188 59.8711C51.2188 60.8027 50.6973 61.541 49.8359 62.0039V64.8398H52.2031ZM44.4922 59.8711C44.4863 61.0371 45.6992 61.8164 47.4102 61.8164C49.1035 61.8164 50.3281 61.0371 50.3281 59.8711C50.3281 58.7051 49.1035 57.9375 47.4102 57.9492C45.6992 57.9375 44.4863 58.7051 44.4922 59.8711ZM45.9336 64.8398H48.9102V62.3613C48.459 62.4785 47.9551 62.543 47.4102 62.543C46.877 62.543 46.3789 62.4844 45.9336 62.3672V64.8398Z" fill="#19191B" fill-opacity="0.9"/>
</svg>
