<svg width="75" height="75" viewBox="0 0 75 75" fill="none" xmlns="http://www.w3.org/2000/svg">
<rect width="75" height="75" fill="white"/>
<rect width="75" height="75" fill="white"/>
<path d="M26 18C26 16.8954 26.8954 16 28 16H47C48.1046 16 49 16.8954 49 18V42.8482C49 44.5235 47.0635 45.4564 45.7534 44.4121L39.9932 39.8207C38.5345 38.6579 36.4655 38.6579 35.0068 39.8207L29.2466 44.4121C27.9365 45.4564 26 44.5235 26 42.8482V18Z" fill="#19191B" fill-opacity="0.9"/>
<path d="M27.1133 58.0664C27.1191 59.8535 29.1582 61.4414 30.9688 61.7812L30.5469 62.5547C28.9707 62.1914 27.3184 61.0723 26.6445 59.543C25.9648 61.0723 24.3184 62.1855 22.7422 62.5547L22.3203 61.7812C24.125 61.4355 26.1465 59.8594 26.1523 58.0664V57.2695H27.1133V58.0664ZM21.9219 65.5312V64.7695H31.4609V65.5312H21.9219ZM40.6016 57.5977V58.8867C40.6074 60.4219 40.6074 61.8398 40.168 63.9492L39.2422 63.8672C39.4766 62.8652 39.5879 61.998 39.6465 61.1895L33.2891 61.5352L33.1602 60.7734L39.6875 60.5039C39.7051 59.9531 39.7109 59.4199 39.7109 58.8867V58.3711H33.4414V57.5977H40.6016ZM32.293 65.4844V64.7109H41.7852V65.4844H32.293ZM51.5117 56.543V62.3086H50.6328V59.7656H49.168V62.2031H48.3125V56.7305H49.168V59.0273H50.6328V56.543H51.5117ZM43.1211 57.9141V57.1641H47.0703V59.8359H44.0352V61.2188C45.4062 61.2012 46.4609 61.1484 47.6914 60.8906L47.7969 61.6523C46.4434 61.9043 45.3359 61.9629 43.8242 61.9688H43.1445V59.1328H46.1914V57.9141H43.1211ZM44.6445 66.8086V62.7891H45.5586V63.9844H50.6094V62.7891H51.5117V66.8086H44.6445ZM45.5586 66.0586H50.6094V64.7344H45.5586V66.0586Z" fill="#19191B" fill-opacity="0.9"/>
</svg>
