<svg width="400" height="48" viewBox="0 0 400 48" fill="none" xmlns="http://www.w3.org/2000/svg">
<rect width="400" height="48" rx="8" fill="#FEE500"/>
<path d="M144.857 14C138.86 14 134 17.8412 134 22.5822C134 25.6666 136.059 28.3726 139.15 29.884C138.924 30.731 138.327 32.9552 138.209 33.4304C138.061 34.02 138.424 34.0134 138.662 33.855C138.849 33.7296 141.636 31.8332 142.84 31.017C143.493 31.1138 144.166 31.1644 144.855 31.1644C150.85 31.1644 155.712 27.3232 155.712 22.5822C155.712 17.8412 150.852 14 144.857 14Z" fill="#371D1E"/>
<path d="M175.102 18.5781C175.086 22.9688 174.023 26.6172 168.711 29.2812L167.617 27.7812C169.992 26.6016 171.406 25.2812 172.211 23.7031L168.008 24.0938L167.758 22.3906L172.812 22.0859C172.961 21.4844 173.062 20.8438 173.109 20.1719H168.508V18.5781H175.102ZM176.898 31.4062V17.2188H178.898V22.6719H180.914V24.3125H178.898V31.4062H176.898ZM188.93 18.5781C188.914 22.9688 187.852 26.6172 182.539 29.2812L181.445 27.7812C183.82 26.6016 185.234 25.2812 186.039 23.7031L181.836 24.0938L181.586 22.3906L186.641 22.0859C186.789 21.4844 186.891 20.8438 186.938 20.1719H182.336V18.5781H188.93ZM190.727 31.4062V17.2188H192.727V22.6719H194.742V24.3125H192.727V31.4062H190.727ZM201.82 17.9531C204.875 17.9531 207.172 19.5 207.18 21.8438C207.172 23.9922 205.359 25.4297 202.805 25.7109V28.1406H208.352V29.7812H195.336V28.1406H200.82V25.7109C198.281 25.4219 196.477 23.9844 196.477 21.8438C196.477 19.5 198.766 17.9531 201.82 17.9531ZM198.445 21.8438C198.445 23.3438 199.828 24.1797 201.82 24.1875C203.82 24.1797 205.203 23.3438 205.211 21.8438C205.203 20.4219 203.82 19.5391 201.82 19.5469C199.828 19.5391 198.445 20.4219 198.445 21.8438ZM222.18 28.2188V29.8594H209.164V28.2188H214.648V26.0781H210.664V21.2969H218.711V19.7344H210.648V18.1406H220.68V22.8594H212.664V24.4531H221.008V26.0781H216.633V28.2188H222.18ZM239.695 28.2188V29.8594H226.68V28.2188H232.164V26.0781H228.18V21.2969H236.227V19.7344H228.164V18.1406H238.195V22.8594H230.18V24.4531H238.523V26.0781H234.148V28.2188H239.695ZM251.883 18.5312V20.2344C251.875 22.1875 251.875 24.1172 251.367 27.0625L249.352 26.8906C249.891 24.1562 249.891 22.125 249.898 20.2344V20.125H241.852V18.5312H251.883ZM240.508 29.5781V27.9375H253.477V29.5781H240.508ZM266.242 17.2344V27.4531H264.242V17.2344H266.242ZM254.555 21.7188C254.555 19.6328 256.258 18.1328 258.445 18.1406C260.625 18.1328 262.328 19.6328 262.336 21.7188C262.328 23.8359 260.625 25.3281 258.445 25.3281C256.258 25.3281 254.555 23.8359 254.555 21.7188ZM256.508 21.7188C256.492 22.9062 257.328 23.5938 258.445 23.5938C259.523 23.5938 260.359 22.9062 260.367 21.7188C260.359 20.5625 259.523 19.8672 258.445 19.875C257.328 19.8672 256.492 20.5625 256.508 21.7188ZM256.711 31.1875V26.4219H258.727V29.5938H266.617V31.1875H256.711Z" fill="#333333"/>
</svg>
